<?xml version="1.0" encoding="UTF-8" standalone="no"?><!DOCTYPE svg PUBLIC "-//W3C//DTD SVG 1.1//EN" "http://www.w3.org/Graphics/SVG/1.1/DTD/svg11.dtd"><svg width="100%" height="100%" viewBox="0 0 1250 2417" version="1.1" xmlns="http://www.w3.org/2000/svg" xmlns:xlink="http://www.w3.org/1999/xlink" xml:space="preserve" xmlns:serif="http://www.serif.com/" style="fill-rule:evenodd;clip-rule:evenodd;stroke-linejoin:round;stroke-miterlimit:2;"><path d="M446.495,1386.38c-6.805,-11.593 -10.743,-26.177 -11.947,-43.488c-1.563,-22.473 1.416,-51.352 -0.529,-81.956c-3.397,-53.447 8.383,-85.139 -19.793,-141.49c-4.197,-8.394 -6.789,-19.878 -7.943,-32.054c-0.856,-9.036 -0.278,-18.719 -2.011,-24.393c-22.392,-73.311 16.119,-146.679 37.881,-190.204c3.001,-6.001 10.947,-15.673 22.268,-25.535c15.747,-13.716 39.623,-30.569 45.868,-36.814c3.229,-3.23 8.459,-7.27 16.85,-9.528c5.313,-1.43 16.876,-2.464 32.765,-1.916c49.915,1.719 187.53,12.048 208.937,13.67c4.229,-1.958 8.943,-3.046 13.908,-3.046c18.397,0 33.333,14.936 33.333,33.333c0,9.914 -5.832,32.044 -35.639,36.008c-33.966,4.518 -186.058,-14.282 -231.856,-13.544c-15.645,13.367 -44.617,36.684 -47.897,39.32c-16.623,32.703 -49.028,85.191 -32.659,138.781c2.049,6.707 3.161,16.472 3.846,27.021c0.439,6.753 -0.378,14.374 1.978,19.087c33.368,66.735 22.673,103.779 26.696,167.076c1.656,26.057 -0.127,50.89 0.136,71.731c0.079,6.311 0.34,12.143 1.202,17.353c0.397,2.399 0.055,4.744 1.462,6.151c3.15,3.15 6.945,8.089 8.929,15.666c1.049,4.006 0.803,21.022 0.803,21.022c-0,0 0.031,-0.977 0.031,-1.285c-0,9.34 -2.072,70.023 2.485,84.911c6.231,20.359 23.051,73.04 23.869,111.765c0.459,21.714 -4.512,40.036 -13.337,52.72c0.153,5.786 0.378,18.792 -0.422,25.327c-1.507,12.298 -6.377,22.103 -13.28,29.006c-3.709,3.709 -5.553,8.987 -7.38,14.405c-3.265,9.681 -5.423,20.173 -7.892,29.975c-3.963,15.736 -9.244,29.954 -16.56,40.889c0.392,5.634 0.854,14.618 0.341,19.145c-0.819,7.224 -3.041,13.407 -6.211,18.533c0.669,7.111 3.152,32.667 5.545,47.866c3.14,19.951 4.12,37.722 2.008,46.915c-1.796,7.818 -5.175,13.681 -8.956,18.012c-0.575,2.407 -3.33,14.291 -3.967,22.672c-2.058,27.111 0.128,59.956 0.128,78.043c-0,10.592 11.28,53.151 12.668,58.337c3.957,4.903 6.965,11.156 8.162,18.917c0.846,5.483 -0.633,18.852 -1.443,25.311c7.084,17.279 9.663,36.555 9.535,56.625c-0.165,25.996 -5.256,53.538 -5.256,77.474c0,18.397 -14.936,33.333 -33.333,33.333c-18.397,0 -33.333,-14.936 -33.333,-33.333c-0,-20.596 3.553,-43.784 4.865,-66.473c0.924,-15.971 1.264,-31.732 -5.291,-44.841c-2.737,-5.475 -4.663,-13.03 -4.266,-22.05c0.147,-3.332 0.982,-9.389 1.638,-13.724c-2.787,-5.245 -5.515,-11.635 -7.796,-18.909c-7.285,-23.231 -12.817,-57.666 -12.817,-70.667c0,-22.907 -2.806,-67.614 1.77,-98.808c2.214,-15.092 6.641,-27.784 12.221,-37.125c-0.292,-3.436 -0.819,-8.878 -1.46,-13.236c-2.57,-17.486 -6.507,-38.435 -7.421,-54.852c-0.876,-15.732 1.951,-28.865 6.468,-38.326c-0.39,-5.346 -1.017,-15.82 -0.449,-20.832c1.25,-11.019 5.763,-19.616 11.898,-25.751c2.424,-2.425 3.015,-6.466 4.26,-10.591c2.919,-9.672 5.106,-20.574 7.962,-31.148c4.668,-17.278 11.29,-33.581 21.398,-46.336c-0.152,-5.966 -0.349,-18.532 0.433,-24.918c1.387,-11.32 5.624,-20.528 11.679,-27.3c0.241,-2.614 1.387,-16.327 0.288,-25.563c-3.659,-30.726 -15.428,-65.991 -20.014,-80.977c-5.609,-18.326 -5.404,-92.924 -5.404,-104.421l0.048,-0.966Zm303.013,-545.96l-0.013,0.349l0.056,-0.733l-0.043,0.384Zm0.576,-4.12c-0.144,0.689 -0.264,1.382 -0.347,2.081l0.063,-0.495l0.284,-1.586Zm0.183,-0.854l-0.147,0.682l0.258,-1.116l-0.111,0.434Zm0.313,-1.219l-0.008,0.034l0.024,-0.086l-0.016,0.052Z" style="fill:#fff;"/><path d="M587.508,2113.55c101.576,-161.298 154.958,-106.71 291.89,-137.819c18.494,-4.201 81.483,44.412 111.507,37.591c17.981,-4.085 57.61,26.956 74.296,37.465c42.045,26.477 104.792,33.213 115.954,82.344c1.525,6.713 22.411,23.629 18.294,30.166" style="fill:#fff;"/><path d="M881.437,2009.4c-40.669,8.773 -74.223,10.523 -103.973,12.584c-29.261,2.026 -54.146,3.701 -79.053,17.677c-25.951,14.561 -51.308,41.803 -82.697,91.648c-9.803,15.567 -30.402,20.247 -45.969,10.443c-15.568,-9.803 -20.247,-30.401 -10.444,-45.969c69.632,-110.571 121.03,-130.253 183.528,-137.66c35.511,-4.208 75.85,-2.784 129.185,-14.901c6.243,-1.418 14.335,-1.612 23.807,0.722c9.608,2.368 22.732,8.218 37.01,15.317c11.643,5.789 24.391,12.432 36.351,17.095c5.356,2.088 14.251,4.033 15.321,4.262c10.632,-2.134 25.189,-0.378 40.765,6.545c20.302,9.024 45.128,27.499 57.696,35.413c25.134,15.828 57.709,24.543 82.137,39.581c22.5,13.851 39.532,31.935 47.066,57.834c4.195,5.167 15.199,19.052 17.877,25.48c5.856,14.057 3.477,26.27 -2.388,35.584c-9.804,15.568 -30.402,20.248 -45.969,10.444c-8.055,-5.072 -13.195,-13.034 -14.913,-21.696c-3.498,-4.19 -9.472,-11.467 -11.745,-14.896c-3.573,-5.39 -5.482,-10.448 -6.379,-14.396c-3.251,-14.312 -15.747,-20.731 -28.762,-27.219c-23.299,-11.615 -50.522,-20.494 -72.449,-34.303c-8.774,-5.525 -24.037,-16.918 -39.001,-25.569c-4.616,-2.669 -11.821,-5.786 -14.286,-6.829c-9.718,1.428 -21.13,0.556 -33.43,-2.824c-13.853,-3.807 -29.592,-10.933 -44.658,-18.377c-11.929,-5.893 -29.178,-13.58 -34.627,-15.99Z" style="fill:#fff;"/><path d="M597.024,2142.85c23.806,104.784 244.325,196.189 331.797,176.316c40.652,-9.235 84.238,-24.858 129.315,-35.099c32.056,-7.282 69.529,-61.559 93.466,-66.997c13.998,-3.18 24.859,-49.604 39.44,-40.422" style="fill:#fff;"/><path d="M1160.14,2249.28c-0.813,0.519 -5.151,3.322 -7.78,5.447c-6.856,5.544 -14.198,12.561 -21.801,19.603c-21.02,19.469 -44.459,37.564 -65.043,42.24c-45.078,10.241 -88.664,25.864 -129.315,35.1c-57.977,13.171 -169.556,-15.345 -254.669,-67.32c-60.074,-36.685 -105.881,-85.098 -117.018,-134.117c-4.075,-17.94 7.181,-35.814 25.121,-39.89c17.94,-4.076 35.814,7.18 39.89,25.12c7.911,34.823 44.075,65.929 86.751,91.99c68.994,42.131 158.159,69.883 205.155,59.206c40.652,-9.235 84.238,-24.858 129.315,-35.099c5.433,-1.234 10.681,-5.638 16.376,-10.189c9.496,-7.589 18.938,-16.761 27.906,-25.007c13.999,-12.87 27.923,-23.183 39.795,-28.519c2.731,-4.692 8.916,-15.189 12.569,-20.71c5.21,-7.876 11.044,-13.934 16.52,-17.665c14.35,-9.775 29.236,-10.887 44.887,-1.031c15.568,9.804 20.248,30.402 10.444,45.969c-4.496,7.14 -11.262,11.989 -18.772,14.193c-3.894,6.648 -10.04,16.82 -13.925,21.902c-8.053,10.534 -17.642,16.49 -26.406,18.777Zm14.384,-43.685l-1.25,-0.743c0.417,0.262 0.833,0.51 1.25,0.743Z" style="fill:#fff;"/><path d="M652.287,2121.71c50.552,-11.485 184.503,-23.651 236.618,9.168" style="fill:#fff;"/><path d="M659.671,2154.22c28.475,-6.469 85.14,-13.081 136.478,-10.75c29.849,1.354 57.927,4.872 74.993,15.619c15.568,9.804 36.166,5.124 45.969,-10.443c9.804,-15.568 5.124,-36.166 -10.443,-45.97c-24.63,-15.51 -64.419,-23.849 -107.496,-25.805c-58.036,-2.634 -122.081,5.026 -154.27,12.339c-17.94,4.076 -29.196,21.95 -25.12,39.89c4.075,17.94 21.949,29.196 39.889,25.12Z" style="fill:#fff;"/><path d="M857.241,1400.4c9.221,13.173 62.083,7.889 78.889,7.889c20.588,0 133.302,4.752 141.998,-3.944c15.543,-15.543 41.08,-34.346 67.055,-47.333c35.028,-17.514 55.222,-47.898 55.222,-98.61c-0,-5.908 10.774,-32.614 3.944,-39.444c-21.154,-21.154 -35.05,-137.605 -47.333,-149.888c-16.038,-16.038 -13.959,-49.458 -31.555,-67.055c-20.935,-20.935 -44.669,-53.837 -59.166,-82.832c-18.696,-37.392 -64.116,-39.947 -94.666,-55.222c-36.611,-18.305 -101.913,-19.722 -149.887,-19.722c-8.172,0 -46.077,-5.2 -51.278,0c-22.264,22.265 -90.019,22.965 -114.387,47.333c-33.01,33.009 -72.303,52.581 -106.499,86.777c-18.325,18.325 -7.889,96.639 -7.889,130.165c-0,23.863 -9.84,92.715 -3.944,98.611c7.888,7.888 7.888,23.666 15.777,31.555c22.025,22.025 62.743,50.91 86.777,74.943c16.824,16.824 55.052,15.609 70.999,31.556c9.466,9.465 31.685,0.129 39.444,7.889c19.352,19.351 58.863,27.306 78.889,47.332c5.175,5.176 35.499,5.013 35.499,15.778" style="fill:#fff;"/><path d="M512.178,1228.38c-4.013,-5.182 -9.255,-15.435 -9.611,-30.713c-0.504,-21.596 5.789,-69.902 5.789,-89.16c-0,-24.261 -5.049,-71.216 -1.723,-103.7c2.354,-22.994 9.988,-40.648 19.375,-50.035c34.196,-34.197 73.489,-53.768 106.499,-86.777c15.529,-15.53 44.033,-25.464 73.053,-33.117c10.377,-2.736 20.709,-5.359 29.7,-8.62c4.66,-1.69 9.005,-2.967 11.634,-5.596c4.412,-4.412 13.229,-10.164 26.621,-11.576c13.61,-1.435 41.181,1.813 48.227,1.813c52.812,-0 124.491,3.089 164.794,23.241c14.609,7.305 32.833,11.408 49.58,18.316c24.817,10.235 46.745,25.316 59.993,51.813c12.977,25.953 34.183,55.43 52.922,74.169c10.731,10.731 17.477,24.878 22.296,40.088c1.871,5.904 3.478,11.953 5.346,17.692c1.119,3.44 1.638,7 3.913,9.275c3.638,3.638 8.412,10.375 12.188,20.565c3.918,10.575 8.173,28.017 12.622,47.593c4.99,21.96 10.398,46.962 16.602,66.062c2.105,6.484 6.222,15.371 6.78,16.565c5.817,6.198 10.232,15.05 11.035,26.496c0.735,10.464 -4.825,33.355 -6.112,38.448c-0.761,64.714 -28.384,102.984 -73.611,125.597c-22.595,11.298 -44.871,27.569 -58.392,41.089c-4.086,4.086 -16.59,11.462 -36.539,13.362c-34.819,3.318 -112.145,0.346 -129.029,0.346c-9.864,-0 -31.213,1.48 -50.266,0.638c-5.687,4.54 -12.897,7.25 -20.734,7.25c-9.807,0 -18.631,-4.244 -24.731,-10.997c-5.671,-1.299 -14.726,-3.469 -18.541,-4.84c-7.25,-2.605 -12.426,-6.332 -15.798,-9.703c-9.626,-9.627 -25.378,-14.876 -39.384,-21.601c-11.93,-5.728 -23.121,-12.008 -32.279,-19.324c-6.197,-0.003 -17.327,-0.222 -23.214,-1.584c-9.172,-2.122 -17.082,-6.34 -23.455,-12.713c-2.329,-2.33 -6.291,-2.73 -10.137,-3.921c-6.205,-1.921 -12.782,-3.583 -19.135,-5.474c-16.482,-4.906 -31.441,-11.874 -41.727,-22.16c-24.034,-24.034 -64.752,-52.919 -86.777,-74.944c-5.629,-5.629 -9.935,-12.765 -13.115,-20.843c-1.503,-3.821 -4.021,-11.149 -4.659,-13.02Zm272.19,-352.766c-12.316,8.311 -29.244,14.869 -47.909,20.014c-12.748,3.514 -26.362,6.69 -38.525,10.774c-7.27,2.442 -14.109,4.555 -18.287,8.733c-32.346,32.346 -70.725,51.789 -104.429,84.743c-0.608,3.212 -2.743,15.062 -3.017,23.61c-0.941,29.363 2.821,65.153 2.821,85.019c0,17.457 -4.293,71.467 -5.465,85.845c1.863,3.126 3.476,6.491 4.872,10.039c1.381,3.509 3.618,9.976 4.466,12.459c22.369,21.805 61.577,49.799 84.974,73.196c2.601,2.601 6.821,3.287 10.928,4.585c6.158,1.946 12.634,3.583 18.841,5.402c13.476,3.949 25.762,9.205 35.192,16.337c5.28,-0.038 15.924,0.009 20.987,0.876c10.108,1.73 18.287,6.035 24.496,12.244c9.289,9.29 24.906,14.363 38.957,21.143c11.504,5.551 22.412,11.676 31.559,18.829c11.095,-4.469 23.789,-2.58 33.092,4.789c7.867,0.117 47.73,0.698 58.209,0.698c15.632,-0 106.022,-0.723 125.473,-0.881c17.682,-16.062 42.965,-34.023 68.673,-46.877c24.18,-12.09 36.795,-33.789 36.795,-68.796c0,-3.357 3.466,-19.357 5.218,-27.23c-5.545,-9.19 -10.995,-21.774 -15.492,-36.573c-10.197,-33.558 -25.087,-98.35 -26.761,-105.677c-8.119,-9.593 -13.665,-21.942 -17.843,-35.498c-2.968,-9.63 -3.423,-20.959 -10.302,-27.838c-23.132,-23.132 -49.392,-59.459 -65.41,-91.496c-7.057,-14.114 -21.361,-18.652 -34.87,-23.449c-15.646,-5.555 -31.534,-10.188 -44.889,-16.865c-32.923,-16.462 -91.839,-16.203 -134.98,-16.203c-4.797,-0 -28.063,-1.381 -37.374,-1.952Z" style="fill:#fff;"/></svg>