<?xml version="1.0" encoding="UTF-8" standalone="no"?><!DOCTYPE svg PUBLIC "-//W3C//DTD SVG 1.1//EN" "http://www.w3.org/Graphics/SVG/1.1/DTD/svg11.dtd"><svg width="100%" height="100%" viewBox="0 0 1250 2417" version="1.1" xmlns="http://www.w3.org/2000/svg" xmlns:xlink="http://www.w3.org/1999/xlink" xml:space="preserve" xmlns:serif="http://www.serif.com/" style="fill-rule:evenodd;clip-rule:evenodd;stroke-linejoin:round;stroke-miterlimit:2;"><path d="M470.125,670.562c1.984,-16.5 16.049,-29.302 33.081,-29.302c18.398,0 33.334,14.936 33.334,33.333c-0,5.788 -5.539,25.688 -16.251,50.179c-15.36,35.115 -39.64,84.207 -52.403,106.128c-2.641,4.536 -5.109,8.273 -7.209,11.162c-0.057,3.603 -0.189,11.211 -0.32,15.716c-0.321,11.093 -2.376,21.246 -6.224,28.943c-9.557,19.112 -10.071,62.329 -5.721,98.435c1.466,12.163 3.605,23.557 6.552,32.992c1.533,4.908 2.475,9.255 4.758,11.538c7.188,7.188 12.566,18.432 13.983,32.802c0.818,8.288 1.026,26.06 1.054,29.012c15.58,31.806 27.408,73.484 40.354,112.71c10.846,32.863 21.585,64.173 39.275,81.863c12.724,12.724 21.071,38.546 24.59,68.001c1.804,15.097 2.915,31.194 5.044,44.954c0.826,5.344 3.049,13.245 3.566,15.043c2.745,3.132 5.638,7.603 7.284,13.889c1.049,4.006 0.803,21.022 0.803,21.022c0,-0 0.031,-0.977 0.031,-1.285c-0,8.621 10.337,58.029 8.129,83.935c-1.388,16.295 -7.556,27.909 -13.948,34.301c-2.263,2.263 -2.991,6.597 -4.546,11.27c-3.264,9.806 -6.027,21.346 -8.942,32.984c-6.856,27.369 -15.811,54.497 -28.028,71.158c0.152,5.847 0.369,18.706 -0.426,25.191c-1.507,12.299 -6.377,22.104 -13.279,29.006c-3.71,3.71 -5.554,8.988 -7.381,14.405c-3.265,9.682 -5.423,20.174 -7.892,29.976c-3.963,15.735 -9.244,29.953 -16.56,40.889c0.393,5.634 0.855,14.618 0.341,19.144c-1.097,9.676 -4.71,17.483 -9.728,23.395c-0.618,3.49 -3.976,22.669 -5.14,33.291c-1.317,12.028 -3.179,22.884 -5.864,30.282c-2.551,7.028 -6.046,12.459 -9.75,16.469c-0.437,1.63 -2.818,10.729 -3.375,16.87c-2.034,22.41 0.168,49.39 0.168,67.262c-0,10.592 11.28,53.151 12.668,58.337c3.957,4.903 6.965,11.156 8.162,18.917c0.846,5.483 -0.633,18.852 -1.443,25.311c7.084,17.279 9.663,36.555 9.535,56.625c-0.165,25.996 -5.256,53.538 -5.256,77.474c0,18.397 -14.936,33.333 -33.333,33.333c-18.397,0 -33.333,-14.936 -33.333,-33.333c-0,-20.596 3.553,-43.784 4.865,-66.473c0.924,-15.971 1.264,-31.732 -5.291,-44.841c-2.737,-5.475 -4.663,-13.03 -4.266,-22.05c0.147,-3.332 0.982,-9.389 1.638,-13.724c-2.787,-5.245 -5.515,-11.635 -7.796,-18.909c-7.285,-23.231 -12.817,-57.666 -12.817,-70.667c0,-23.314 -2.747,-60.484 1.911,-87.235c2.718,-15.609 8.148,-28.563 15.316,-37.825c0.675,-6.494 3.638,-33.815 6.841,-48.549c2.147,-9.879 5.512,-18.511 9.672,-25.437c-0.396,-5.59 -0.903,-14.993 -0.374,-19.66c1.249,-11.02 5.762,-19.617 11.897,-25.751c2.425,-2.425 3.015,-6.466 4.26,-10.591c2.92,-9.673 5.106,-20.574 7.963,-31.148c4.667,-17.278 11.289,-33.581 21.397,-46.336c-0.151,-5.966 -0.349,-18.532 0.433,-24.918c1.507,-12.299 6.377,-22.103 13.28,-29.006c4.216,-4.217 6.265,-11.736 8.854,-19.816c4.266,-13.316 7.658,-28.391 11.263,-42.337c5.667,-21.928 13.058,-41.291 21.781,-53.56c-0.007,-4.295 -0.116,-14.902 -0.931,-22.455c-2.584,-23.966 -7.342,-49.193 -7.342,-55.204l0.132,-2.651c-6.345,-13.196 -10.867,-31.581 -13.129,-52.041c-1.621,-14.658 -2.763,-30.521 -5.148,-44.312c-1.04,-6.017 -3.998,-14.914 -4.477,-16.33c-19.042,-19.46 -34.042,-49.488 -46.475,-83.666c-15.67,-43.079 -27.754,-93.332 -45.716,-129.256c-3.92,-7.84 -6.095,-18.515 -6.481,-30.208c-0.178,-5.41 -0.367,-14.424 -0.45,-18.716c-11.447,-15.894 -21.099,-44.424 -25.071,-77.386c-5.87,-48.724 -1.243,-106.476 11.222,-133.984c0.016,-3.179 0.145,-18.961 1.032,-26.559c1.44,-12.346 5.903,-22.534 12.528,-29.941c1.014,-1.703 7.667,-12.949 12.719,-22.558c17.656,-33.584 43.375,-87.695 50.043,-108.332l0.357,-1.195Z" style="fill:#fff;"/><path d="M550.539,1455.59c0,-190.617 74.261,-172.871 173.554,-272.164c13.41,-13.41 92.617,-5.84 114.388,-27.611c13.038,-13.038 63.113,-7.889 82.832,-7.889c49.687,0 106.373,-27.737 141.999,7.889c4.868,4.868 31.555,8.053 31.555,15.778" style="fill:#fff;"/><path d="M815.638,1131.55c7.86,-7.472 21.113,-13.743 37.982,-16.184c21.989,-3.183 52.841,-0.779 67.693,-0.779c29.703,-0 61.911,-9.985 90.596,-10.277c26.42,-0.269 50.469,5.958 70.645,23.858c6.304,2.137 23.014,8.023 28.705,12.035c12.446,8.774 16.942,20.377 16.942,31.384c-0,18.397 -14.937,33.333 -33.334,33.333c-9.518,-0 -18.111,-3.999 -24.18,-10.413c-5.193,-1.68 -14.126,-4.655 -17.876,-6.346c-5.895,-2.656 -10.207,-5.92 -13.069,-8.782c-10.379,-10.378 -24.373,-9.151 -38.843,-7.706c-25.905,2.588 -53.673,9.58 -79.586,9.58c-10.368,0 -29.354,-1.507 -46.627,-0.853c-5.328,0.201 -13.086,1.403 -15.727,1.834c-7.463,6.387 -17.584,11.73 -29.793,15.424c-13.752,4.161 -30.867,6.518 -47.582,8.248c-13.234,1.37 -31.927,4.057 -37.823,4.921c-29.738,29.095 -57.198,48.457 -81.274,66.053c-23.681,17.308 -43.846,31.986 -57.474,57.084c-14.2,26.151 -21.14,62.715 -21.14,121.62c-0,18.397 -14.936,33.333 -33.334,33.333c-18.397,0 -33.333,-14.936 -33.333,-33.333c0,-130.669 33.004,-174.714 81.943,-214.285c27.806,-22.484 62.7,-42.775 101.374,-81.449c4.527,-4.528 11.271,-9.004 20.531,-12.076c9.392,-3.116 23.614,-5.159 39.479,-6.761c12.937,-1.306 27.264,-2.477 39.869,-4.905c5.646,-1.088 14.208,-4.182 15.236,-4.558Z" style="fill:#fff;"/><path d="M574.206,1475.31c75.981,75.981 311.291,35.817 374.718,-27.611c29.478,-29.478 58.035,-65.924 90.722,-98.61c23.245,-23.245 26.031,-89.142 43.388,-106.499c10.151,-10.151 -5.398,-55.222 11.833,-55.222" style="fill:#fff;"/><path d="M1053.27,1226.8c-0.19,-5.425 -0.55,-17.603 -0.401,-24.222c0.212,-9.441 1.921,-17.676 4.567,-23.751c6.933,-15.919 18.936,-24.792 37.433,-24.792c18.397,-0 33.334,14.936 33.334,33.333c-0,8.437 -3.142,16.146 -8.322,22.013c0.247,7.701 0.467,19.584 -0.112,25.953c-1.201,13.206 -6.141,23.356 -12.339,29.961c-0.411,0.872 -2.589,5.556 -3.68,8.755c-2.848,8.345 -5.321,18.195 -8.002,28.206c-7.412,27.675 -17.604,55.477 -32.53,70.403c-32.687,32.687 -61.244,69.133 -90.721,98.61c-42.04,42.04 -151.653,77.368 -251.372,78.743c-70.382,0.97 -134.942,-15.587 -170.487,-51.132c-13.009,-13.009 -13.009,-34.132 -0,-47.14c13.008,-13.009 34.131,-13.009 47.14,-0c25.251,25.251 72.429,32.301 122.428,31.612c80.833,-1.115 171.072,-25.145 205.15,-59.223c29.478,-29.478 58.035,-65.924 90.721,-98.61c3.94,-3.94 6.034,-10.463 8.428,-17.349c3.991,-11.482 7.093,-24.274 10.288,-36.031c4.987,-18.351 11.275,-34.497 18.477,-45.339Zm43.053,-6.135l-1.454,0.037c0.493,-0 0.977,-0.013 1.454,-0.037Z" style="fill:#fff;"/><path d="M609.705,1427.98c36.658,-36.657 143.522,-118.332 205.11,-118.332" style="fill:#fff;"/><path d="M633.276,1451.55c20.647,-20.647 65.073,-56.438 109.757,-81.824c25.98,-14.759 51.613,-26.745 71.782,-26.745c18.397,0 33.333,-14.936 33.333,-33.333c-0,-18.397 -14.936,-33.334 -33.333,-33.334c-29.107,0 -67.22,14.147 -104.713,35.447c-50.514,28.697 -100.626,69.307 -123.967,92.649c-13.009,13.008 -13.009,34.131 0,47.14c13.009,13.009 34.132,13.009 47.141,0Z" style="fill:#fff;"/><path d="M526.873,682.482c9.221,13.173 62.082,7.889 78.888,7.889c20.589,0 133.302,4.752 141.999,-3.944c15.542,-15.543 41.08,-34.346 67.055,-47.333c35.027,-17.514 55.221,-47.898 55.221,-98.61c0,-5.908 10.774,-32.615 3.945,-39.444c-21.154,-21.154 -35.05,-137.605 -47.333,-149.888c-16.039,-16.038 -13.959,-49.458 -31.556,-67.055c-20.935,-20.935 -44.668,-53.837 -59.166,-82.832c-18.696,-37.392 -64.116,-39.947 -94.665,-55.222c-36.612,-18.305 -101.914,-19.722 -149.888,-19.722c-8.171,0 -46.077,-5.2 -51.277,0c-22.264,22.265 -90.02,22.965 -114.388,47.333c-33.009,33.009 -72.302,52.58 -106.499,86.777c-18.324,18.325 -7.889,96.639 -7.889,130.165c0,23.863 -9.84,92.715 -3.944,98.61c7.889,7.889 7.889,23.667 15.778,31.556c22.025,22.025 62.743,50.909 86.777,74.943c16.823,16.824 55.052,15.609 70.999,31.556c9.465,9.465 31.684,0.129 39.444,7.888c19.352,19.352 58.862,27.307 78.888,47.333c5.175,5.176 35.5,5.013 35.5,15.778" style="fill:#fff;"/><path d="M181.81,510.468c-4.014,-5.181 -9.255,-15.434 -9.612,-30.713c-0.504,-21.595 5.789,-69.901 5.789,-89.159c0,-24.262 -5.049,-71.216 -1.723,-103.7c2.355,-22.995 9.988,-40.648 19.375,-50.035c34.197,-34.197 73.49,-53.768 106.499,-86.777c15.53,-15.53 44.033,-25.464 73.053,-33.117c10.377,-2.736 20.71,-5.359 29.701,-8.62c4.659,-1.69 9.004,-2.967 11.634,-5.596c4.412,-4.412 13.228,-10.165 26.621,-11.576c13.61,-1.435 41.18,1.813 48.226,1.813c52.812,-0 124.491,3.089 164.795,23.241c14.609,7.304 32.832,11.408 49.58,18.316c24.817,10.235 46.744,25.316 59.993,51.813c12.976,25.953 34.183,55.43 52.922,74.169c10.73,10.73 17.477,24.878 22.296,40.088c1.87,5.903 3.478,11.952 5.345,17.692c1.12,3.44 1.639,7 3.914,9.275c3.637,3.637 8.411,10.375 12.187,20.565c3.919,10.575 8.174,28.016 12.622,47.593c4.991,21.96 10.399,46.962 16.602,66.062c2.106,6.484 6.223,15.371 6.781,16.565c5.817,6.198 10.231,15.05 11.035,26.496c0.734,10.464 -4.825,33.354 -6.113,38.448c-0.76,64.714 -28.384,102.984 -73.61,125.597c-22.596,11.298 -44.872,27.568 -58.392,41.089c-4.086,4.086 -16.591,11.462 -36.54,13.362c-34.819,3.318 -112.144,0.345 -129.029,0.345c-9.863,0 -31.213,1.48 -50.266,0.639c-5.687,4.54 -12.896,7.25 -20.733,7.25c-9.808,0 -18.632,-4.245 -24.732,-10.997c-5.67,-1.299 -14.725,-3.469 -18.54,-4.84c-7.25,-2.605 -12.427,-6.332 -15.798,-9.703c-9.627,-9.627 -25.379,-14.876 -39.385,-21.601c-11.93,-5.728 -23.12,-12.008 -32.279,-19.324c-6.197,-0.003 -17.326,-0.222 -23.214,-1.584c-9.171,-2.122 -17.081,-6.34 -23.454,-12.713c-2.33,-2.33 -6.291,-2.73 -10.137,-3.921c-6.205,-1.921 -12.782,-3.583 -19.136,-5.474c-16.482,-4.907 -31.44,-11.874 -41.727,-22.16c-24.034,-24.034 -64.751,-52.919 -86.777,-74.944c-5.628,-5.629 -9.935,-12.765 -13.114,-20.843c-1.504,-3.822 -4.022,-11.15 -4.659,-13.021Zm272.189,-352.765c-12.316,8.311 -29.244,14.868 -47.909,20.014c-12.747,3.514 -26.361,6.69 -38.525,10.774c-7.27,2.441 -14.109,4.555 -18.287,8.733c-32.345,32.346 -70.725,51.788 -104.428,84.743c-0.609,3.212 -2.744,15.061 -3.018,23.61c-0.94,29.363 2.822,65.152 2.822,85.019c-0,17.457 -4.293,71.467 -5.466,85.845c1.863,3.126 3.477,6.491 4.873,10.039c1.381,3.509 3.617,9.976 4.465,12.458c22.37,21.806 61.578,49.8 84.975,73.197c2.6,2.601 6.82,3.287 10.927,4.585c6.158,1.946 12.635,3.583 18.841,5.401c13.477,3.95 25.763,9.206 35.192,16.338c5.28,-0.038 15.925,0.009 20.988,0.876c10.108,1.73 18.286,6.035 24.495,12.244c9.29,9.29 24.907,14.363 38.958,21.143c11.504,5.551 22.412,11.676 31.558,18.829c11.096,-4.469 23.789,-2.58 33.092,4.789c7.867,0.117 47.731,0.698 58.209,0.698c15.632,-0 106.022,-0.723 125.474,-0.881c17.681,-16.062 42.964,-34.023 68.672,-46.877c24.18,-12.09 36.796,-33.789 36.796,-68.796c-0,-3.358 3.465,-19.357 5.217,-27.23c-5.545,-9.19 -10.995,-21.774 -15.491,-36.573c-10.197,-33.559 -25.087,-98.35 -26.761,-105.677c-8.12,-9.594 -13.665,-21.942 -17.843,-35.498c-2.968,-9.63 -3.423,-20.959 -10.303,-27.838c-23.131,-23.132 -49.392,-59.46 -65.41,-91.496c-7.057,-14.114 -21.36,-18.652 -34.869,-23.449c-15.646,-5.555 -31.535,-10.188 -44.889,-16.866c-32.923,-16.461 -91.84,-16.203 -134.981,-16.203c-4.796,0 -28.063,-1.38 -37.374,-1.951Z" style="fill:#fff;"/></svg>