<?xml version="1.0" encoding="UTF-8" standalone="no"?><!DOCTYPE svg PUBLIC "-//W3C//DTD SVG 1.1//EN" "http://www.w3.org/Graphics/SVG/1.1/DTD/svg11.dtd"><svg width="100%" height="100%" viewBox="0 0 2500 3334" version="1.1" xmlns="http://www.w3.org/2000/svg" xmlns:xlink="http://www.w3.org/1999/xlink" xml:space="preserve" xmlns:serif="http://www.serif.com/" style="fill-rule:evenodd;clip-rule:evenodd;stroke-linecap:round;stroke-linejoin:round;stroke-miterlimit:1.5;"><path d="M1182.75,235.096l-81.848,885.714l327.393,2.924l-81.848,-888.638l-163.697,-0Z" style="fill:#1f1f1f;"/><path d="M1176.9,238.019l172.466,-0l29.231,-102.311l-111.08,-131.541l-108.156,137.388l17.539,96.464Z" style="fill:#939090;stroke:#939090;stroke-width:4.17px;"/><g id="Layer1"></g><path d="M1261.67,3324.87l111.08,-219.236l49.693,-1768.51l-157.85,143.234l-175.389,-181.235l70.156,1806.51l102.31,219.236Z" style="fill:#dcdcdc;"/><path d="M1089.21,1158.81l-17.539,163.697l192.928,163.696l190.005,-175.389l-26.308,-154.927l-163.697,105.234l-175.389,-102.311Z" style="fill:#b6b6b6;"/><path d="M1261.67,1261.12l344.932,-131.542l283.546,8.769l67.232,52.617l128.619,-78.925l-125.696,-67.233l-70.155,46.771l-1297.88,-17.539l-76.002,-46.77l-102.311,67.232l116.926,93.541l61.387,-70.156l321.546,-2.923l347.855,146.158Z" style="fill:#939090;"/></svg>